<?xml version="1.0" encoding="utf-8"?>
<!-- Generator: Adobe Illustrator 22.1.0, SVG Export Plug-In . SVG Version: 6.00 Build 0)  -->
<svg version="1.1" id="Слой_1" xmlns="http://www.w3.org/2000/svg" xmlns:xlink="http://www.w3.org/1999/xlink" x="0px" y="0px"
	 viewBox="0 0 24 24" style="enable-background:new 0 0 24 24;" xml:space="preserve">
<style type="text/css">
	.st0{fill:#C4C4C4;}
</style>
<path class="st0" d="M3,9c0.6,0,1-0.4,1-1V5c0-0.6,0.4-1,1-1h3c0.6,0,1-0.4,1-1S8.6,2,8,2H5C3.3,2,2,3.3,2,5v3C2,8.6,2.4,9,3,9z
	 M8,20H5c-0.6,0-1-0.4-1-1v-3c0-0.6-0.4-1-1-1s-1,0.4-1,1v3c0,1.7,1.3,3,3,3h3c0.6,0,1-0.4,1-1S8.6,20,8,20z M12,8c-2.2,0-4,1.8-4,4
	s1.8,4,4,4s4-1.8,4-4S14.2,8,12,8z M12,14c-1.1,0-2-0.9-2-2s0.9-2,2-2s2,0.9,2,2S13.1,14,12,14z M19,2h-3c-0.6,0-1,0.4-1,1
	s0.4,1,1,1h3c0.6,0,1,0.4,1,1v3c0,0.6,0.4,1,1,1s1-0.4,1-1V5C22,3.3,20.7,2,19,2z M21,15c-0.6,0-1,0.4-1,1v3c0,0.6-0.4,1-1,1h-3
	c-0.6,0-1,0.4-1,1s0.4,1,1,1h3c1.7,0,3-1.3,3-3v-3C22,15.4,21.6,15,21,15z"/>
</svg>
